<svg width="162" height="202" viewBox="0 0 162 202" fill="none" xmlns="http://www.w3.org/2000/svg">
<g filter="url(#filter0_d_1_2893)">
<path d="M94.3563 20.5029C100.254 32.4721 112.824 51.5165 135.061 57.6075C138.336 58.5045 141.5 62.8106 141.5 66.3873V123.23C141.5 142.553 132.042 155.445 116.524 157.275L100.586 159.155C94.1814 159.911 86.11 155.604 79.7056 148.014L63.7679 129.125C48.2483 110.732 38.7914 87.7482 38.7914 68.4249V11.3961C38.7914 7.87357 41.8691 6.89462 45.1087 9.39313C67.6665 26.7879 80.1165 21.5247 85.9416 16.0097C88.0032 14.0608 92.3077 16.3458 94.3563 20.5029Z" fill="#C5CBD4"/>
<path d="M76.0649 30.2624C81.9633 42.2316 94.5329 61.2767 116.771 67.367C120.046 68.264 123.209 72.57 123.209 76.1474V132.99C123.209 152.313 113.752 165.205 98.233 167.036L82.2952 168.915C75.8908 169.667 67.8186 165.364 61.4142 157.773L45.4765 138.884C29.9569 120.491 20.5 97.5077 20.5 78.1843V21.1556C20.5 17.633 23.5777 16.6541 26.8173 19.1526C49.3743 36.5473 61.8243 31.2842 67.6502 25.7691C69.7126 23.8202 74.0172 26.106 76.0649 30.2624Z" fill="#0D034A" stroke="#1F07B2"/>
<path d="M123.214 132.99V76.1474C123.214 72.782 120.414 68.773 117.356 67.5617C95.1455 61.4617 81.9658 42.2233 76.0674 30.2631C74.0205 26.1067 69.7151 23.8217 67.6519 25.7736C61.8268 31.2849 49.3768 36.5488 26.819 19.157C24.9853 17.7413 23.2068 17.4413 22.006 18.0819L40.2958 8.32018C41.4982 7.68033 43.2758 7.98108 45.1072 9.39311C67.6657 26.7871 80.1157 21.5255 85.94 16.0097C88.0032 14.0548 92.3086 16.3435 94.3564 20.4999C100.214 32.3857 113.085 51.3895 135.035 57.6181L135.06 57.6045C138.334 58.5008 141.498 62.8076 141.498 66.3835V123.226C141.498 138.089 135.899 149.139 126.255 154.286C126.259 154.293 107.967 164.053 107.967 164.053C117.61 158.903 123.214 147.851 123.214 132.99ZM116.775 67.367L117.328 67.5504C117.148 67.4797 116.964 67.4185 116.777 67.367H116.775Z" fill="#B6BCC4"/>
<path d="M104.085 77.2407C93.7072 73.0918 82.7737 62.8993 74.4428 51.6489C72.8702 49.5256 70.6947 48.3406 69.1196 48.7819C60.9026 51.0797 50.6671 49.9849 39.6344 42.4992C37.8445 41.2872 36.2678 41.9586 36.2678 43.8729V86.6008C36.2678 100.109 42.8789 116.176 53.7286 129.033L69.6663 147.922C70.2639 148.653 71.0063 149.272 71.854 149.746C72.504 150.131 73.2718 150.311 74.0417 150.257L89.9794 148.378C100.829 147.1 107.44 138.085 107.44 124.577V82.1993C107.386 81.1767 107.049 80.184 106.462 79.3159C105.875 78.4478 105.056 77.7333 104.085 77.2407Z" fill="white"/>
<path d="M37.7339 41.9045C37.4352 42.3218 37.2877 42.816 37.3124 43.3158V86.0414C37.3124 99.5498 43.9243 115.617 54.7732 128.474L70.7109 147.363C71.3088 148.093 72.0515 148.712 72.8994 149.187C73.5493 149.571 74.3167 149.751 75.0863 149.698L91.0249 147.818C93.2321 147.569 95.3712 146.948 97.3357 145.985C95.1024 147.27 92.5912 148.086 89.9794 148.376L74.0417 150.256C73.2718 150.309 72.504 150.13 71.854 149.745C71.0063 149.27 70.2639 148.651 69.6663 147.92L53.7286 129.031C42.8789 116.174 36.2678 100.107 36.2678 86.5986V43.8729C36.2678 42.7 36.8634 41.9962 37.7339 41.9045Z" fill="#CEA500" fill-opacity="0.1"/>
</g>
<defs>
<filter id="filter0_d_1_2893" x="0" y="0" width="161.5" height="201.5" filterUnits="userSpaceOnUse" color-interpolation-filters="sRGB">
<feFlood flood-opacity="0" result="BackgroundImageFix"/>
<feColorMatrix in="SourceAlpha" type="matrix" values="0 0 0 0 0 0 0 0 0 0 0 0 0 0 0 0 0 0 127 0" result="hardAlpha"/>
<feOffset dy="12"/>
<feGaussianBlur stdDeviation="10"/>
<feComposite in2="hardAlpha" operator="out"/>
<feColorMatrix type="matrix" values="0 0 0 0 0 0 0 0 0 0 0 0 0 0 0 0 0 0 0.25 0"/>
<feBlend mode="normal" in2="BackgroundImageFix" result="effect1_dropShadow_1_2893"/>
<feBlend mode="normal" in="SourceGraphic" in2="effect1_dropShadow_1_2893" result="shape"/>
</filter>
</defs>
</svg>
