<svg width="347" height="633" viewBox="0 0 347 633" fill="none" xmlns="http://www.w3.org/2000/svg">
<path d="M0.307496 739.297C0.307496 739.297 -0.824644 97.8134 1.25578 89.5727C3.33621 81.3321 9.5775 85.1814 9.5775 85.1814C11.9289 98.6677 28.64 91.3182 42.6128 93.1648L137.751 145.989L179.263 160.22L311.801 95.287L308.743 93.6058C320.074 88.5805 326.557 91.9797 332.692 81.4974L341.614 86.5502L346.917 87.965L345.581 739.756C345.581 745.351 341.691 750.946 333.921 755.208L201.141 827.987C185.591 836.503 160.297 836.503 144.747 827.987L11.9579 755.208C4.31353 751.019 0.423613 745.535 0.307496 740.032C0.307496 739.784 0.307496 739.536 0.326849 739.297H0.307496Z" fill="url(#paint0_linear_1112_989)"/>
<path d="M7.80671 81.2218L138.758 9.49984C162.078 -3.26993 190.817 -3.15969 214.03 9.79381L339.533 79.8346C345.949 83.4175 348.097 91.2631 344.323 97.354C343.152 99.2465 341.488 100.827 339.485 101.929L205.854 175.819C186.627 186.448 162.862 186.448 143.635 175.819L7.76801 100.67C2.11698 97.5469 0.201055 90.6568 3.50071 85.2916C4.53609 83.6012 6.02625 82.1957 7.81639 81.2127L7.80671 81.2218Z" fill="url(#paint1_linear_1112_989)"/>
<defs>
<linearGradient id="paint0_linear_1112_989" x1="358.648" y1="-171.531" x2="-230.719" y2="118.062" gradientUnits="userSpaceOnUse">
<stop stop-color="#3F4C7C"/>
<stop offset="1" stop-color="#000B34"/>
</linearGradient>
<linearGradient id="paint1_linear_1112_989" x1="354.57" y1="10.8498" x2="165.558" y2="304.331" gradientUnits="userSpaceOnUse">
<stop stop-color="#485894"/>
<stop offset="1" stop-color="#333C5E"/>
</linearGradient>
</defs>
</svg>
