<svg width="215" height="306" viewBox="0 0 215 306" fill="none" xmlns="http://www.w3.org/2000/svg">
<path d="M0.190411 459.094C0.190411 459.094 -0.510644 60.7409 0.777619 55.6236C2.06588 50.5063 5.93067 52.8966 5.93067 52.8966C7.38671 61.2715 17.7348 56.7075 26.3871 57.8542L85.2996 90.6577L111.005 99.4946L193.076 59.1721L191.183 58.1281C198.199 55.0075 202.214 57.1183 206.013 50.6089L211.537 53.7467L214.821 54.6252L213.994 459.38C213.994 462.854 211.585 466.328 206.774 468.975L124.553 514.17C114.924 519.458 99.2608 519.458 89.6318 514.17L7.40468 468.975C2.67106 466.374 0.262314 462.968 0.190411 459.551C0.190411 459.397 0.190411 459.243 0.202394 459.094H0.190411Z" fill="url(#paint0_linear_1112_991)"/>
<path d="M4.83415 50.4378L85.9228 5.89928C100.363 -2.03059 118.159 -1.96213 132.534 6.08184L210.249 49.5763C214.222 51.8013 215.552 56.6733 213.215 60.4557C212.49 61.6309 211.459 62.6121 210.219 63.2967L127.471 109.182C115.565 115.782 100.849 115.782 88.9427 109.182L4.81018 62.5152C1.3109 60.5755 0.1245 56.2968 2.16774 52.9651C2.80888 51.9154 3.73163 51.0425 4.84014 50.4321L4.83415 50.4378Z" fill="url(#paint1_linear_1112_991)"/>
<defs>
<linearGradient id="paint0_linear_1112_991" x1="222.086" y1="-106.519" x2="-143.27" y2="72.4949" gradientUnits="userSpaceOnUse">
<stop stop-color="#3F4C7C"/>
<stop offset="1" stop-color="#000B34"/>
</linearGradient>
<linearGradient id="paint1_linear_1112_991" x1="219.56" y1="6.73762" x2="102.048" y2="188.682" gradientUnits="userSpaceOnUse">
<stop stop-color="#485894"/>
<stop offset="1" stop-color="#333C5E"/>
</linearGradient>
</defs>
</svg>
