<svg width="227" height="395" viewBox="0 0 227 395" fill="none" xmlns="http://www.w3.org/2000/svg">
<path d="M0.208422 500.608C0.208422 500.608 -0.558948 66.2335 0.851177 60.6534C2.2613 55.0733 6.49168 57.6798 6.49168 57.6798C8.08545 66.812 19.4124 61.8353 28.8832 63.0857L93.3685 98.8554L121.505 108.491L211.34 64.5227L209.268 63.3843C216.948 59.9815 221.342 62.2832 225.501 55.1853L231.548 58.6067L235.142 59.5647L234.237 500.919C234.237 504.708 231.6 508.496 226.333 511.383L136.335 560.664C125.795 566.431 108.65 566.431 98.1105 560.664L8.10512 511.383C2.92373 508.546 0.287127 504.832 0.208422 501.106C0.208422 500.938 0.208422 500.77 0.22154 500.608H0.208422Z" fill="url(#paint0_linear_1112_992)"/>
<path d="M5.29143 54.9987L94.0506 6.43273C109.857 -2.21421 129.337 -2.13956 145.071 6.6318L230.138 54.0593C234.486 56.4854 235.942 61.798 233.384 65.9224C232.591 67.2039 231.462 68.2739 230.105 69.0204L139.529 119.054C126.497 126.252 110.388 126.252 97.3562 119.054L5.2652 68.1681C1.4349 66.0531 0.136276 61.3874 2.3728 57.7545C3.07458 56.6098 4.08463 55.6581 5.29799 54.9924L5.29143 54.9987Z" fill="url(#paint1_linear_1112_992)"/>
<defs>
<linearGradient id="paint0_linear_1112_992" x1="243.094" y1="-116.151" x2="-156.23" y2="80.2545" gradientUnits="userSpaceOnUse">
<stop stop-color="#3F4C7C"/>
<stop offset="1" stop-color="#000B34"/>
</linearGradient>
<linearGradient id="paint1_linear_1112_992" x1="240.329" y1="7.34687" x2="112.393" y2="206.189" gradientUnits="userSpaceOnUse">
<stop stop-color="#485894"/>
<stop offset="1" stop-color="#333C5E"/>
</linearGradient>
</defs>
</svg>
